Coordinates
version=1
nRows=26
nColumns=24
inDegrees=yes

Units are S.I. units (second, meters, Newtons, ...)
Angles are in degrees.

endheader
time	pelvis_tilt	pelvis_list	pelvis_rotation	pelvis_tx	pelvis_ty	pelvis_tz	hip_flexion_r	hip_adduction_r	hip_rotation_r	knee_angle_r	ankle_angle_r	subtalar_angle_r	mtp_angle_r	hip_flexion_l	hip_adduction_l	hip_rotation_l	knee_angle_l	ankle_angle_l	subtalar_angle_l	mtp_angle_l	lumbar_extension	lumbar_bending	lumbar_rotation
      3.57000000	     -4.50709404	      9.92200508	     -1.64657084	     -0.64078284	     -0.02194846	     -0.17182682	     31.22471162	    -10.27071443	     -0.58797999	    -69.69467334	    -14.20617116	      4.76670830	     28.24834516	     12.12466920	     18.55115939	     -2.31633362	    -16.45288539	      6.98257939	     -0.68084007	    -11.86558555	      4.71994690	    -11.03380278	     -1.63342510
      3.57500000	     -4.39455158	      9.68436389	     -1.50029801	     -0.63470138	     -0.02126387	     -0.17188937	     31.77424930	     -9.94401696	     -0.70642897	    -68.93959392	    -13.60178733	      4.39853804	     27.87673377	     11.21866680	     18.38634766	     -1.80756827	    -16.07228125	      7.29024916	     -0.69280445	    -12.11505433	      4.51400921	    -10.81332862	     -1.83884305
      3.58000000	     -4.26109180	      9.47706068	     -1.32683597	     -0.62863878	     -0.02064061	     -0.17198037	     32.27446730	     -9.68686750	     -0.87410643	    -68.13816827	    -12.96221787	      4.02367626	     27.31033514	     10.30209334	     18.24747754	     -1.32320211	    -15.71105004	      7.61714019	     -0.65296720	    -12.41654961	      4.28025967	    -10.62752651	     -2.04867877
      3.58500000	     -4.20908727	      9.20777595	     -1.16144435	     -0.62261148	     -0.02009806	     -0.17202734	     32.82213266	     -9.33439321	     -1.00123998	    -67.22185364	    -12.43734176	      3.71256235	     26.86344338	      9.51187330	     18.01451597	     -0.93257351	    -15.40051229	      7.95077123	     -0.53758225	    -12.55404419	      4.12943873	    -10.37531941	     -2.27882817
      3.59000000	     -4.08874331	      8.98147498	     -0.96705491	     -0.61658305	     -0.01959912	     -0.17210296	     33.26790763	     -9.08215384	     -1.21066905	    -66.27169086	    -11.86278740	      3.34971871	     26.17376876	      8.64501342	     17.82578371	     -0.54172025	    -15.08913892	      8.33129054	     -0.36317008	    -12.72485229	      3.90358085	    -10.17102042	     -2.50455654
      3.59500000	     -4.05084365	      8.70471735	     -0.77189957	     -0.61059154	     -0.01917501	     -0.17214247	     33.75790530	     -8.75541524	     -1.38281244	    -65.20625646	    -11.37420965	      3.07474895	     25.61424916	      7.90462610	     17.56472330	     -0.21489753	    -14.82508491	      8.68125701	     -0.18204796	    -12.80542214	      3.76093352	     -9.91544194	     -2.75697873
      3.60000000	     -4.01205231	      8.44313837	     -0.59218849	     -0.60456593	     -0.01887019	     -0.17224080	     34.23336525	     -8.47354460	     -1.57931686	    -64.09277623	    -10.91945842	      2.80678495	     25.06748077	      7.16292705	     17.32132932	      0.07891911	    -14.54846010	      9.07924920	     -0.01457149	    -12.83576850	      3.63417645	     -9.65921024	     -2.98418215
      3.60500000	     -3.90011031	      8.22091268	     -0.37469722	     -0.59863888	     -0.01852538	     -0.17221429	     34.58767718	     -8.24787728	     -1.81957674	    -62.92788919	    -10.35939736	      2.51085681	     24.18071448	      6.36539760	     17.09792300	      0.39972722	    -14.31441152	      9.45226115	      0.26669413	    -12.93583673	      3.39355075	     -9.47735928	     -3.23130112
      3.61000000	     -3.87313020	      7.98029721	     -0.22951646	     -0.59266182	     -0.01835201	     -0.17216237	     35.03106915	     -7.96184045	     -1.97925174	    -61.73657917	     -9.70907301	      2.45866361	     23.02556490	      5.68455841	     16.85050359	      0.59868631	    -14.10168849	      9.89977078	      0.48471819	    -13.19944795	      3.27294533	     -9.25179660	     -3.41399833
      3.61500000	     -3.86075083	      7.73049773	     -0.00795767	     -0.58674248	     -0.01820239	     -0.17219778	     35.42504794	     -7.73558895	     -2.22223856	    -60.38215326	     -9.33279405	      2.22767692	     22.60412634	      5.01967969	     16.59735162	      0.91147802	    -13.88765355	     10.25528009	      0.66660219	    -13.22580351	      3.14486176	     -9.02849543	     -3.69036444
      3.62000000	     -3.83744159	      7.46443251	      0.18191892	     -0.58082336	     -0.01808683	     -0.17220870	     35.77172423	     -7.48358890	     -2.45610134	    -58.95133519	     -8.94077260	      2.05322792	     22.08993869	      4.35987898	     16.32454543	      1.15875916	    -13.68399211	     10.59638974	      0.77937207	    -13.25999114	      3.00898100	     -8.77872857	     -3.96262221
      3.62500000	     -3.80086655	      7.22429506	      0.34893026	     -0.57491541	     -0.01801660	     -0.17216087	     36.08012552	     -7.25195308	     -2.67174763	    -57.46781739	     -8.51355533	      1.93337563	     21.46048346	      3.69052171	     16.07104195	      1.41752800	    -13.48113993	     10.93150670	      0.88543185	    -13.32683250	      2.86217417	     -8.56204560	     -4.19238429
      3.63000000	     -3.88800753	      7.01238361	      0.45646068	     -0.56904773	     -0.01814564	     -0.17203718	     36.52400360	     -7.00304488	     -2.77034618	    -55.91728729	     -8.15638041	      1.90453786	     21.11218626	      3.18444174	     15.84152027	      1.62962959	    -13.29469360	     11.22055635	      0.92865798	    -13.33819592	      2.85460253	     -8.35983343	     -4.28040011
      3.63500000	     -3.77124912	      6.76562346	      0.65840444	     -0.56322251	     -0.01807112	     -0.17200719	     36.65364534	     -6.82452984	     -3.10633403	    -54.28365508	     -7.70431351	      1.80491627	     20.34556190	      2.44445831	     15.57786373	      1.89143355	    -13.10900386	     11.54474021	      0.99766121	    -13.44365803	      2.58860603	     -8.14829044	     -4.63354215
      3.64000000	     -3.74101967	      6.57240767	      0.75374738	     -0.55736486	     -0.01815478	     -0.17182168	     36.89055613	     -6.60920867	     -3.24728453	    -52.64340926	     -7.19888817	      1.92571758	     19.38783566	      1.78877567	     15.35671045	      2.13707718	    -12.88454557	     11.86163772	      1.06474570	    -13.66582051	      2.44588888	     -7.97969513	     -4.80391667
      3.64500000	     -3.73790832	      6.38336262	      0.84625930	     -0.55158430	     -0.01832810	     -0.17168149	     37.12224246	     -6.41623856	     -3.41793560	    -50.92303501	     -6.69672070	      2.05617769	     18.53497393	      1.21806239	     15.14841111	      2.26493751	    -12.74128683	     12.18981047	      1.09042418	    -13.92829826	      2.31686667	     -7.80230856	     -4.95554532
      3.65000000	     -3.87816737	      6.21719825	      0.95927493	     -0.54585701	     -0.01866933	     -0.17159201	     37.48361688	     -6.27377231	     -3.58571351	    -49.09978607	     -6.43762052	      2.15257282	     18.28747808	      0.82111101	     14.96511473	      2.38819784	    -12.60695723	     12.43250642	      1.11372995	    -13.93762365	      2.33606389	     -7.64692107	     -5.07869712
      3.65500000	     -3.78696762	      6.02812594	      1.13669336	     -0.54015999	     -0.01876323	     -0.17156307	     37.49916435	     -6.17649242	     -3.92054694	    -47.18996698	     -6.08268110	      2.21451099	     17.71845771	      0.15989757	     14.74703557	      2.54831759	    -12.47098690	     12.71459481	      1.22513665	    -14.02918759	      2.08619990	     -7.47323861	     -5.37755614
      3.66000000	     -3.77516104	      5.86730763	      1.23753618	     -0.53447187	     -0.01898515	     -0.17140426	     37.59781046	     -6.04724094	     -4.14234463	    -45.25934282	     -5.73864576	      2.42518701	     17.09840067	     -0.40579560	     14.54902227	      2.61831031	    -12.32593309	     12.98640810	      1.34734786	    -14.16249233	      1.92546460	     -7.32936155	     -5.55949818
      3.66500000	     -3.79592549	      5.73532460	      1.34860198	     -0.52882946	     -0.01928128	     -0.17129274	     37.69990201	     -5.96741526	     -4.38422839	    -43.28160573	     -5.41992174	      2.66304874	     16.58883699	     -0.91097886	     14.38181501	      2.64173224	    -12.21841049	     13.25889135	      1.51165837	    -14.26723987	      1.79709735	     -7.20507597	     -5.73046181
      3.67000000	     -3.80175334	      5.61322373	      1.45072008	     -0.52320347	     -0.01957206	     -0.17115704	     37.74681164	     -5.89376363	     -4.61872354	    -41.25989662	     -5.13243406	      2.95732468	     16.11945205	     -1.42451233	     14.21483795	      2.59898272	    -12.11848626	     13.53762826	      1.75801015	    -14.37439978	      1.64620725	     -7.09401151	     -5.91495323
      3.67500000	     -3.81381593	      5.50626941	      1.55383721	     -0.51759925	     -0.01989382	     -0.17102325	     37.76496516	     -5.84222222	     -4.87115770	    -39.20382412	     -4.85354231	      3.29069832	     15.74875484	     -1.91507224	     14.05664261	      2.50096790	    -12.04394123	     13.82705018	      2.08130790	    -14.46346253	      1.49698911	     -6.99224689	     -6.08804199
      3.68000000	     -3.82111914	      5.40345260	      1.65253372	     -0.51201046	     -0.02022238	     -0.17084946	     37.74308172	     -5.79128556	     -5.12671126	    -37.12284800	     -4.58866193	      3.67908387	     15.47056825	     -2.39798805	     13.88969452	      2.33577428	    -11.98759807	     14.13648923	      2.49951663	    -14.53589089	      1.33805893	     -6.89977637	     -6.25780143
      3.68500000	     -3.82301604	      5.31059483	      1.74441649	     -0.50642138	     -0.02055493	     -0.17066883	     37.68292820	     -5.74496509	     -5.36886331	    -35.02807317	     -4.32574861	      4.11312476	     15.28246960	     -2.87200275	     13.72190455	      2.09211905	    -11.95681694	     14.46328613	      3.03218147	    -14.59503283	      1.17378055	     -6.81395188	     -6.42755180
      3.69000000	     -3.79842162	      5.21912177	      1.83277305	     -0.50088715	     -0.02085653	     -0.17042840	     37.56592465	     -5.68144411	     -5.54505423	    -32.93281608	     -4.08705384	      4.59949546	     15.15640948	     -3.34188843	     13.53252113	      1.72111373	    -11.98024466	     14.85742959	      3.77780109	    -14.67150543	      0.96185779	     -6.73706527	     -6.63018303
      3.69500000	     -3.79169438	      5.13046626	      1.91364025	     -0.49530284	     -0.02119443	     -0.17016840	     37.44420410	     -5.61347801	     -5.71294488	    -30.85408221	     -3.82484319	      5.10194817	     15.11569077	     -3.77968031	     13.33381713	      1.27263867	    -12.03516266	     15.28824361	      4.63921909	    -14.76043036	      0.78257927	     -6.65860842	     -6.79805342
